<?xml version="1.0" encoding="UTF-8" standalone="no"?>
<!DOCTYPE svg PUBLIC "-//W3C//DTD SVG 1.0//EN" "http://www.w3.org/TR/2001/PR-SVG-20010719/DTD/svg10.dtd">
<svg width="31cm" height="13cm" viewBox="494 241 601 254" xmlns="http://www.w3.org/2000/svg" xmlns:xlink="http://www.w3.org/1999/xlink">
  <g>
    <rect style="fill: #ffffff" x="495" y="242" width="140.9" height="28"/>
    <rect style="fill: none; fill-opacity:0; stroke-width: 2; stroke: #000000" x="495" y="242" width="140.9" height="28"/>
    <text font-size="16" style="fill: #000000;text-anchor:middle;font-family:sans-serif;font-style:normal;font-weight:700" x="565.45" y="263">分类表</text>
    <rect style="fill: #ffffff" x="495" y="270" width="140.9" height="20"/>
    <rect style="fill: none; fill-opacity:0; stroke-width: 2; stroke: #000000" x="495" y="270" width="140.9" height="20"/>
    <text font-size="12.8" style="fill: #000000;text-anchor:start;font-family:monospace;font-style:normal;font-weight:normal" x="498" y="285.6"> product_categroy</text>
  </g>
  <g>
    <rect style="fill: #ffffff" x="509" y="445" width="110.1" height="28"/>
    <rect style="fill: none; fill-opacity:0; stroke-width: 2; stroke: #000000" x="509" y="445" width="110.1" height="28"/>
    <text font-size="16" style="fill: #000000;text-anchor:middle;font-family:sans-serif;font-style:normal;font-weight:700" x="564.05" y="466">商品表</text>
    <rect style="fill: #ffffff" x="509" y="473" width="110.1" height="20"/>
    <rect style="fill: none; fill-opacity:0; stroke-width: 2; stroke: #000000" x="509" y="473" width="110.1" height="20"/>
    <text font-size="12.8" style="fill: #000000;text-anchor:start;font-family:monospace;font-style:normal;font-weight:normal" x="512" y="488.6"> product_info</text>
  </g>
  <g>
    <line style="fill: none; fill-opacity:0; stroke-width: 2; stroke: #000000" x1="565.278" y1="290.991" x2="564.253" y2="439.537"/>
    <polyline style="fill: none; fill-opacity:0; stroke-width: 2; stroke: #000000" points="559.307,431.739 564.238,441.773 569.307,431.808 "/>
  </g>
  <g>
    <rect style="fill: #ffffff" x="774" y="242" width="110.1" height="28"/>
    <rect style="fill: none; fill-opacity:0; stroke-width: 2; stroke: #000000" x="774" y="242" width="110.1" height="28"/>
    <text font-size="16" style="fill: #000000;text-anchor:middle;font-family:sans-serif;font-style:normal;font-weight:700" x="829.05" y="263">订单主表</text>
    <rect style="fill: #ffffff" x="774" y="270" width="110.1" height="20"/>
    <rect style="fill: none; fill-opacity:0; stroke-width: 2; stroke: #000000" x="774" y="270" width="110.1" height="20"/>
    <text font-size="12.8" style="fill: #000000;text-anchor:start;font-family:monospace;font-style:normal;font-weight:normal" x="777" y="285.6"> order_master</text>
  </g>
  <g>
    <rect style="fill: #ffffff" x="775" y="446" width="110.1" height="28"/>
    <rect style="fill: none; fill-opacity:0; stroke-width: 2; stroke: #000000" x="775" y="446" width="110.1" height="28"/>
    <text font-size="16" style="fill: #000000;text-anchor:middle;font-family:sans-serif;font-style:normal;font-weight:700" x="830.05" y="467">订单详情表</text>
    <rect style="fill: #ffffff" x="775" y="474" width="110.1" height="20"/>
    <rect style="fill: none; fill-opacity:0; stroke-width: 2; stroke: #000000" x="775" y="474" width="110.1" height="20"/>
    <text font-size="12.8" style="fill: #000000;text-anchor:start;font-family:monospace;font-style:normal;font-weight:normal" x="778" y="489.6"> order_detail</text>
  </g>
  <g>
    <line style="fill: none; fill-opacity:0; stroke-width: 2; stroke: #000000" x1="620.103" y1="469.211" x2="769.525" y2="469.772"/>
    <polyline style="fill: none; fill-opacity:0; stroke-width: 2; stroke: #000000" points="761.743,474.743 771.761,469.781 761.78,464.743 "/>
  </g>
  <g>
    <line style="fill: none; fill-opacity:0; stroke-width: 2; stroke: #000000" x1="829.928" y1="445.048" x2="829.194" y2="295.424"/>
    <polyline style="fill: none; fill-opacity:0; stroke-width: 2; stroke: #000000" points="834.232,303.164 829.183,293.188 824.232,303.213 "/>
  </g>
  <g>
    <rect style="fill: #ffffff" x="991" y="343" width="102.4" height="28"/>
    <rect style="fill: none; fill-opacity:0; stroke-width: 2; stroke: #000000" x="991" y="343" width="102.4" height="28"/>
    <text font-size="16" style="fill: #000000;text-anchor:middle;font-family:sans-serif;font-style:normal;font-weight:700" x="1042.2" y="364">卖家信息表</text>
    <rect style="fill: #ffffff" x="991" y="371" width="102.4" height="20"/>
    <rect style="fill: none; fill-opacity:0; stroke-width: 2; stroke: #000000" x="991" y="371" width="102.4" height="20"/>
    <text font-size="12.8" style="fill: #000000;text-anchor:start;font-family:monospace;font-style:normal;font-weight:normal" x="994" y="386.6"> seller_info</text>
  </g>
</svg>
